<svg width="20" height="18" viewBox="0 0 20 18" fill="none" xmlns="http://www.w3.org/2000/svg">
<g id="chat">
<path id="Union" fill-rule="evenodd" clip-rule="evenodd" d="M8 0H9.14286C12.3782 0 15.0902 2.28735 15.8118 5.36434C15.9348 5.88907 16 6.43677 16 7C16 10.866 12.93 14 9.14286 14H4.96161H2.28571C1.02335 14 0 12.9553 0 11.6667V8.16667C0 3.65634 3.58172 0 8 0ZM9.42857 16H6.05814C7.29491 17.2372 8.98876 18 10.8571 18H15.0384H17.7143C18.9766 18 20 16.9553 20 15.6667V12.1667C20 10.0939 19.2435 8.20142 17.997 6.76135C17.999 6.84065 18 6.9202 18 6.99999C18 11.9706 14.1624 16 9.42857 16Z" fill="#F8FAFC"/>
</g>
</svg>
