<svg width="19" height="18" viewBox="0 0 19 18" fill="none" xmlns="http://www.w3.org/2000/svg">
<g id="out">
<path id="Vector 355" opacity="0.4" d="M4 0H8C10.2091 0 12 1.79086 12 4V14C12 16.2091 10.2091 18 8 18H4C1.79086 18 0 16.2091 0 14V4C0 1.79086 1.79086 0 4 0Z" fill="#C96868"/>
<path id="Vector 345 (Stroke)" fill-rule="evenodd" clip-rule="evenodd" d="M14.4697 5.46967C14.7626 5.17678 15.2374 5.17678 15.5303 5.46967L18.5303 8.46967C18.8232 8.76256 18.8232 9.23744 18.5303 9.53033L15.5303 12.5303C15.2374 12.8232 14.7626 12.8232 14.4697 12.5303C14.1768 12.2374 14.1768 11.7626 14.4697 11.4697L16.1893 9.75H6C5.58579 9.75 5.25 9.41421 5.25 9C5.25 8.58579 5.58579 8.25 6 8.25H16.1893L14.4697 6.53033C14.1768 6.23744 14.1768 5.76256 14.4697 5.46967Z" fill="#C96868"/>
</g>
</svg>
