<svg width="16" height="16" viewBox="0 0 16 16" fill="none" xmlns="http://www.w3.org/2000/svg">
<g id="apps-rectangle">
<path id="combo shape" fill-rule="evenodd" clip-rule="evenodd" d="M12 0C10.8954 0 10 0.89543 10 2V4C10 5.10457 10.8954 6 12 6H14C15.1046 6 16 5.10457 16 4V2C16 0.895431 15.1046 0 14 0H12ZM2 10C0.895431 10 0 10.8954 0 12V14C0 15.1046 0.89543 16 2 16H4C5.10457 16 6 15.1046 6 14V12C6 10.8954 5.10457 10 4 10H2ZM0 2C0 0.89543 0.895431 0 2 0H4C5.10457 0 6 0.895431 6 2V4C6 5.10457 5.10457 6 4 6H2C0.89543 6 0 5.10457 0 4V2ZM12 10C10.8954 10 10 10.8954 10 12V14C10 15.1046 10.8954 16 12 16H14C15.1046 16 16 15.1046 16 14V12C16 10.8954 15.1046 10 14 10H12Z" fill="#334155"/>
</g>
</svg>
